<svg xmlns="http://www.w3.org/2000/svg" xmlns:xlink="http://www.w3.org/1999/xlink" width="466" zoomAndPan="magnify" viewBox="0 0 349.5 93.749996" height="125" preserveAspectRatio="xMidYMid meet" version="1.0"><defs><g/><clipPath id="0a73b57380"><path d="M 0.425781 0 L 337.460938 0 L 337.460938 92.753906 L 0.425781 92.753906 Z M 0.425781 0 " clip-rule="nonzero"/></clipPath><clipPath id="81ee465aea"><path d="M 9.515625 8.722656 L 168.945312 8.722656 L 168.945312 84.109375 L 9.515625 84.109375 Z M 9.515625 8.722656 " clip-rule="nonzero"/></clipPath></defs><g clip-path="url(#0a73b57380)"><path stroke-linecap="butt" transform="matrix(0.748005, 0, 0, 0.748005, 0.424024, -0.00000099734)" fill="none" stroke-linejoin="miter" d="M 0.00234939 0.00000133333 L 450.580972 0.00000133333 L 450.580972 124.095686 L 0.00234939 124.095686 Z M 0.00234939 0.00000133333 " stroke="#fdfe07" stroke-width="6" stroke-opacity="1" stroke-miterlimit="4"/></g><g clip-path="url(#81ee465aea)"><path fill="#fdfe07" d="M 9.515625 8.722656 L 168.824219 8.722656 L 168.824219 84.109375 L 9.515625 84.109375 Z M 9.515625 8.722656 " fill-opacity="1" fill-rule="nonzero"/></g><g fill="#000000" fill-opacity="1"><g transform="translate(24.609987, 58.161392)"><g><path d="M 3.6875 0 L 3.6875 -25.328125 L 19.0625 -25.328125 L 19.0625 -22.359375 L 6.875 -22.359375 L 6.875 -14.359375 L 18.15625 -14.359375 L 18.15625 -11.4375 L 6.875 -11.4375 L 6.875 -2.96875 L 19.453125 -2.96875 L 19.453125 0 Z M 3.6875 0 "/></g></g></g><g fill="#000000" fill-opacity="1"><g transform="translate(49.168325, 58.161392)"><g><path d="M 10.703125 0 L 0.609375 -25.328125 L 4.015625 -25.328125 L 8.21875 -14.65625 L 12.1875 -4.59375 L 16.125 -14.65625 L 20.359375 -25.328125 L 23.734375 -25.328125 L 13.671875 0 Z M 10.703125 0 "/></g></g></g><g fill="#000000" fill-opacity="1"><g transform="translate(76.258334, 58.161392)"><g><path d="M 3.6875 0 L 3.6875 -25.328125 L 19.0625 -25.328125 L 19.0625 -22.359375 L 6.875 -22.359375 L 6.875 -14.359375 L 18.15625 -14.359375 L 18.15625 -11.4375 L 6.875 -11.4375 L 6.875 -2.96875 L 19.453125 -2.96875 L 19.453125 0 Z M 3.6875 0 "/></g></g></g><g fill="#000000" fill-opacity="1"><g transform="translate(100.816672, 58.161392)"><g><path d="M 3.6875 0 L 3.6875 -25.328125 L 6.6875 -25.328125 L 20.6875 -5.5 L 20.6875 -25.328125 L 23.796875 -25.328125 L 23.796875 0 L 20.828125 0 L 6.84375 -19.828125 L 6.84375 0 Z M 3.6875 0 "/></g></g></g><g fill="#000000" fill-opacity="1"><g transform="translate(131.05318, 58.161392)"><g><path d="M 9.796875 0 L 9.796875 -22.28125 L 1.234375 -22.28125 L 1.234375 -25.328125 L 21.515625 -25.328125 L 21.515625 -22.28125 L 12.984375 -22.28125 L 12.984375 0 Z M 9.796875 0 "/></g></g></g><g fill="#fdfe07" fill-opacity="1"><g transform="translate(180.44352, 58.356224)"><g><path d="M 11.75 0.546875 C 8.476562 0.546875 5.910156 -0.226562 4.046875 -1.78125 C 2.191406 -3.34375 1.265625 -5.488281 1.265625 -8.21875 L 8.3125 -8.21875 C 8.3125 -7.25 8.609375 -6.492188 9.203125 -5.953125 C 9.796875 -5.410156 10.609375 -5.140625 11.640625 -5.140625 C 12.535156 -5.140625 13.234375 -5.3125 13.734375 -5.65625 C 14.242188 -6.007812 14.5 -6.5 14.5 -7.125 C 14.5 -8.519531 12.984375 -9.519531 9.953125 -10.125 C 4.285156 -11.207031 1.453125 -13.875 1.453125 -18.125 C 1.453125 -20.507812 2.3125 -22.394531 4.03125 -23.78125 C 5.757812 -25.164062 8.117188 -25.859375 11.109375 -25.859375 C 13.179688 -25.859375 14.984375 -25.507812 16.515625 -24.8125 C 18.046875 -24.113281 19.226562 -23.117188 20.0625 -21.828125 C 20.894531 -20.535156 21.3125 -19.023438 21.3125 -17.296875 L 14.4375 -17.296875 C 14.4375 -18.253906 14.15625 -18.984375 13.59375 -19.484375 C 13.039062 -19.992188 12.257812 -20.25 11.25 -20.25 C 10.40625 -20.25 9.726562 -20.070312 9.21875 -19.71875 C 8.71875 -19.375 8.46875 -18.890625 8.46875 -18.265625 C 8.46875 -17.617188 8.800781 -17.078125 9.46875 -16.640625 C 10.144531 -16.203125 11.289062 -15.804688 12.90625 -15.453125 C 16 -14.773438 18.25 -13.789062 19.65625 -12.5 C 21.070312 -11.207031 21.78125 -9.515625 21.78125 -7.421875 C 21.78125 -4.929688 20.898438 -2.976562 19.140625 -1.5625 C 17.378906 -0.15625 14.914062 0.546875 11.75 0.546875 Z M 11.75 0.546875 "/></g></g></g><g fill="#fdfe07" fill-opacity="1"><g transform="translate(203.559784, 58.356224)"><g><path d="M 8.71875 0 L 8.71875 -18.5625 L 1.015625 -18.5625 L 1.015625 -25.328125 L 23.6875 -25.328125 L 23.6875 -18.5625 L 15.984375 -18.5625 L 15.984375 0 Z M 8.71875 0 "/></g></g></g><g fill="#fdfe07" fill-opacity="1"><g transform="translate(228.267775, 58.356224)"><g><path d="M 13.5625 0.546875 C 11.300781 0.546875 9.335938 0.109375 7.671875 -0.765625 C 6.003906 -1.648438 4.71875 -2.910156 3.8125 -4.546875 C 2.90625 -6.191406 2.453125 -8.148438 2.453125 -10.421875 L 2.453125 -25.328125 L 9.765625 -25.328125 L 9.765625 -10.890625 C 9.765625 -7.828125 11.03125 -6.296875 13.5625 -6.296875 C 16.09375 -6.296875 17.359375 -7.828125 17.359375 -10.890625 L 17.359375 -25.328125 L 24.640625 -25.328125 L 24.640625 -10.421875 C 24.640625 -8.148438 24.191406 -6.191406 23.296875 -4.546875 C 22.398438 -2.910156 21.125 -1.648438 19.46875 -0.765625 C 17.820312 0.109375 15.851562 0.546875 13.5625 0.546875 Z M 13.5625 0.546875 "/></g></g></g><g fill="#fdfe07" fill-opacity="1"><g transform="translate(255.399542, 58.356224)"><g><path d="M 2.671875 0 L 2.671875 -25.328125 L 13.421875 -25.328125 C 16.140625 -25.328125 18.519531 -24.800781 20.5625 -23.75 C 22.601562 -22.695312 24.1875 -21.21875 25.3125 -19.3125 C 26.445312 -17.40625 27.015625 -15.1875 27.015625 -12.65625 C 27.015625 -10.125 26.445312 -7.90625 25.3125 -6 C 24.1875 -4.09375 22.601562 -2.613281 20.5625 -1.5625 C 18.519531 -0.519531 16.140625 0 13.421875 0 Z M 9.984375 -6.546875 L 13.203125 -6.546875 C 15.128906 -6.546875 16.671875 -7.097656 17.828125 -8.203125 C 18.984375 -9.316406 19.5625 -10.800781 19.5625 -12.65625 C 19.5625 -14.519531 18.984375 -16.003906 17.828125 -17.109375 C 16.671875 -18.210938 15.128906 -18.765625 13.203125 -18.765625 L 9.984375 -18.765625 Z M 9.984375 -6.546875 "/></g></g></g><g fill="#fdfe07" fill-opacity="1"><g transform="translate(283.652743, 58.356224)"><g><path d="M 2.671875 0 L 2.671875 -25.328125 L 9.984375 -25.328125 L 9.984375 0 Z M 2.671875 0 "/></g></g></g><g fill="#fdfe07" fill-opacity="1"><g transform="translate(296.314238, 58.356224)"><g><path d="M 15.015625 0.546875 C 12.984375 0.546875 11.128906 0.226562 9.453125 -0.40625 C 7.773438 -1.050781 6.320312 -1.960938 5.09375 -3.140625 C 3.863281 -4.328125 2.910156 -5.726562 2.234375 -7.34375 C 1.566406 -8.957031 1.234375 -10.726562 1.234375 -12.65625 C 1.234375 -14.582031 1.566406 -16.351562 2.234375 -17.96875 C 2.910156 -19.59375 3.863281 -20.992188 5.09375 -22.171875 C 6.320312 -23.359375 7.773438 -24.269531 9.453125 -24.90625 C 11.128906 -25.539062 12.984375 -25.859375 15.015625 -25.859375 C 17.035156 -25.859375 18.882812 -25.539062 20.5625 -24.90625 C 22.238281 -24.269531 23.691406 -23.359375 24.921875 -22.171875 C 26.148438 -20.992188 27.101562 -19.59375 27.78125 -17.96875 C 28.457031 -16.351562 28.796875 -14.582031 28.796875 -12.65625 C 28.796875 -10.726562 28.457031 -8.957031 27.78125 -7.34375 C 27.101562 -5.726562 26.148438 -4.328125 24.921875 -3.140625 C 23.691406 -1.960938 22.238281 -1.050781 20.5625 -0.40625 C 18.882812 0.226562 17.035156 0.546875 15.015625 0.546875 Z M 8.640625 -12.65625 C 8.640625 -11.40625 8.910156 -10.289062 9.453125 -9.3125 C 9.992188 -8.332031 10.75 -7.570312 11.71875 -7.03125 C 12.6875 -6.488281 13.785156 -6.21875 15.015625 -6.21875 C 16.265625 -6.21875 17.363281 -6.488281 18.3125 -7.03125 C 19.269531 -7.570312 20.019531 -8.332031 20.5625 -9.3125 C 21.101562 -10.289062 21.375 -11.40625 21.375 -12.65625 C 21.375 -13.9375 21.101562 -15.054688 20.5625 -16.015625 C 20.019531 -16.984375 19.269531 -17.738281 18.3125 -18.28125 C 17.363281 -18.820312 16.265625 -19.09375 15.015625 -19.09375 C 13.785156 -19.09375 12.6875 -18.820312 11.71875 -18.28125 C 10.75 -17.738281 9.992188 -16.984375 9.453125 -16.015625 C 8.910156 -15.054688 8.640625 -13.9375 8.640625 -12.65625 Z M 8.640625 -12.65625 "/></g></g></g></svg>